# xmcd
#
# Track frame offsets: 
#        150
#        19504
#        31379
#        35627
#        60475
#        79366
#        104447
#        122357
#        146300
#        162546
#        187549
#
# Disc length: 2922 seconds
#
# Revision: 8
# Processed by: cddbd v1.5.2PL0 Copyright (c) Steve Scherf et al.
# Submitted via: ExactAudioCopy v1.0b6
#
DISCID=830b680b
DTITLE=My Bloody Valentine - Loveless (Special Edition) [CD 1 - Remast
DTITLE=ered From Original Tape)
DYEAR=2012
DGENRE=Alternative
TTITLE0=Only Shallow
TTITLE1=Loomer
TTITLE2=Touched
TTITLE3=To Here Knows When
TTITLE4=When You Sleep
TTITLE5=I Only Said
TTITLE6=Come In Alone
TTITLE7=Sometimes
TTITLE8=Blown A Wish
TTITLE9=What You Want
TTITLE10=Soon
EXTD=
EXTT0=
EXTT1=
EXTT2=
EXTT3=
EXTT4=
EXTT5=
EXTT6=
EXTT7=
EXTT8=
EXTT9=
EXTT10=
PLAYORDER=
